<svg width="40" height="40" viewBox="0 0 40 40" fill="none" xmlns="http://www.w3.org/2000/svg">
<circle cx="20" cy="20" r="19.5" fill="#FEFEFE" stroke="#858585"/>
<path d="M22.3477 19.4987L29.5075 12.7117C29.821 12.4138 29.9972 12.0098 29.9972 11.5885C29.9972 11.1672 29.821 10.7632 29.5075 10.4653C29.1939 10.1674 28.7687 10 28.3253 10C27.8819 10 27.4566 10.1674 27.1431 10.4653L20 17.268L12.8569 10.4653C12.5434 10.1674 12.1181 10 11.6747 10C11.2313 10 10.8061 10.1674 10.4925 10.4653C10.179 10.7632 10.0028 11.1672 10.0028 11.5885C10.0028 12.0098 10.179 12.4138 10.4925 12.7117L17.6523 19.4987L10.4925 26.2856C10.3365 26.4326 10.2126 26.6076 10.1281 26.8004C10.0435 26.9932 10 27.2 10 27.4088C10 27.6176 10.0435 27.8244 10.1281 28.0172C10.2126 28.21 10.3365 28.385 10.4925 28.532C10.6473 28.6803 10.8315 28.798 11.0344 28.8783C11.2373 28.9587 11.4549 29 11.6747 29C11.8945 29 12.1122 28.9587 12.3151 28.8783C12.518 28.798 12.7021 28.6803 12.8569 28.532L20 21.7293L27.1431 28.532C27.2979 28.6803 27.482 28.798 27.6849 28.8783C27.8878 28.9587 28.1055 29 28.3253 29C28.5451 29 28.7627 28.9587 28.9656 28.8783C29.1685 28.798 29.3527 28.6803 29.5075 28.532C29.6635 28.385 29.7874 28.21 29.8719 28.0172C29.9565 27.8244 30 27.6176 30 27.4088C30 27.2 29.9565 26.9932 29.8719 26.8004C29.7874 26.6076 29.6635 26.4326 29.5075 26.2856L22.3477 19.4987Z" fill="#858585"/>
</svg>
