<svg width="40" height="40" viewBox="0 0 40 40" fill="none" xmlns="http://www.w3.org/2000/svg">
<circle cx="20" cy="20" r="19.5" fill="#FEFEFE" stroke="#858585"/>
<path d="M18.2278 8.65192C18.7237 8.2309 19.3514 8 20 8C20.6486 8 21.2763 8.2309 21.7722 8.65192L30.0222 15.6594C30.6419 16.1863 31 16.9607 31 17.7769V29.8456C31 30.4169 30.7747 30.9649 30.3735 31.369C29.9724 31.773 29.4284 32 28.8611 32H24.5833C24.0161 32 23.472 31.773 23.0709 31.369C22.6698 30.9649 22.4444 30.4169 22.4444 29.8456V23.0744C22.4444 22.9928 22.4123 22.9145 22.3549 22.8568C22.2976 22.7991 22.2199 22.7666 22.1389 22.7666H17.8611C17.7801 22.7666 17.7024 22.7991 17.6451 22.8568C17.5877 22.9145 17.5556 22.9928 17.5556 23.0744V29.8456C17.5556 30.4169 17.3302 30.9649 16.9291 31.369C16.528 31.773 15.9839 32 15.4167 32H11.1389C10.858 32 10.5799 31.9443 10.3204 31.836C10.0609 31.7277 9.82508 31.569 9.62647 31.369C9.42785 31.1689 9.2703 30.9314 9.16281 30.67C9.05532 30.4086 9 30.1285 9 29.8456V17.7769C9 16.9607 9.35811 16.1863 9.97778 15.6594L18.2278 8.65192ZM20.5903 10.064C20.4251 9.92388 20.216 9.84705 20 9.84705C19.784 9.84705 19.5749 9.92388 19.4097 10.064L11.1597 17.0703C11.0576 17.1568 10.9755 17.2648 10.9191 17.3867C10.8627 17.5085 10.8335 17.6413 10.8333 17.7757V29.8443C10.8333 30.0142 10.9702 30.1521 11.1389 30.1521H15.4167C15.4977 30.1521 15.5754 30.1197 15.6327 30.062C15.69 30.0042 15.7222 29.9259 15.7222 29.8443V23.0732C15.7222 21.8827 16.6804 20.9187 17.8611 20.9187H22.1389C23.3196 20.9187 24.2778 21.8827 24.2778 23.0732V29.8443C24.2778 30.0142 24.4147 30.1521 24.5833 30.1521H28.8611C28.9422 30.1521 29.0199 30.1197 29.0772 30.062C29.1345 30.0042 29.1667 29.9259 29.1667 29.8443V17.7769C29.1665 17.6425 29.1373 17.5097 29.0809 17.3879C29.0245 17.2661 28.9424 17.1581 28.8403 17.0715L20.5903 10.064Z" fill="#858585"/>
</svg>
