<svg width="40" height="40" viewBox="0 0 40 40" fill="none" xmlns="http://www.w3.org/2000/svg">
<circle cx="20" cy="20" r="19.5" fill="#FEFEFE" stroke="#858585"/>
<path d="M14.8201 31.9998C13.2951 31.9998 12.0588 30.7635 12.0588 29.2384L12.0588 10.8284C12.0588 9.26616 13.3497 7.99976 14.9119 7.99976C15.9443 7.99976 16.9052 8.57507 17.3805 9.4916L18.3224 11.308C19.4145 13.4142 22.5989 12.6377 22.5989 10.2652C22.5989 9.01402 23.6131 7.99976 24.8643 7.99976H25.27C26.7452 7.99976 27.9411 9.19566 27.9411 10.6709V29.3176C27.9411 30.7989 26.7403 31.9998 25.2589 31.9998C24.2286 31.9998 23.2893 31.4095 22.8423 30.4812L21.9771 28.6844C20.9105 26.4691 17.5815 27.2288 17.5815 29.6875C17.5815 30.9645 16.5463 31.9998 15.2692 31.9998H14.8201Z" fill="#FEFEFE"/>
<path fill-rule="evenodd" clip-rule="evenodd" d="M10.9999 9.99976C10.9999 8.3429 12.3431 6.99976 13.9999 6.99976H15.4009C16.2908 6.99976 17.1096 7.48563 17.5361 8.26668L18.4264 9.89711C19.3986 11.6777 22.1042 10.9872 22.1042 8.95844C22.1042 7.87669 22.9811 6.99976 24.0629 6.99976H25.9999C27.6568 6.99976 28.9999 8.3429 28.9999 9.99976V28.9998C28.9999 30.6566 27.6568 31.9998 25.9999 31.9998H24.8193C23.908 31.9998 23.074 31.4876 22.6619 30.6748L21.8635 29.1001C20.9134 27.2262 18.0859 27.902 18.0859 30.003C18.0859 31.1058 17.1919 31.9998 16.0891 31.9998H13.9999C12.3431 31.9998 10.9999 30.6566 10.9999 28.9998L10.9999 9.99976ZM14.614 7.9879C13.3181 7.9879 12.2675 9.03844 12.2675 10.3343L12.2675 28.7363C12.2675 29.9929 13.2863 31.0116 14.5429 31.0116C15.7995 31.0116 16.8182 29.9929 16.8182 28.7363V19.7288C16.8182 19.3417 17.1018 19.013 17.4847 18.9562C17.8172 18.9068 18.144 19.0757 18.2961 19.3756L23.5872 29.8114C23.9605 30.5477 24.7159 31.0116 25.5414 31.0116C26.7514 31.0116 27.7323 30.0307 27.7323 28.8206V10.1682C27.7323 8.96404 26.7562 7.9879 25.5521 7.9879C24.3479 7.9879 23.3718 8.96404 23.3718 10.1682V18.3804C23.3718 18.769 23.0893 19.1 22.7055 19.161C22.3753 19.2135 22.0478 19.0526 21.8876 18.7592L16.6734 9.20985C16.2621 8.45653 15.4723 7.9879 14.614 7.9879Z" fill="#858585"/>
</svg>
