<svg width="19" height="19" viewBox="0 0 19 19" fill="none" xmlns="http://www.w3.org/2000/svg">
<path d="M17.8099 16.85L14.9099 13.95C15.9999 12.55 16.5899 10.84 16.5899 9.03999C16.5899 6.88999 15.7499 4.87 14.2299 3.35C11.0999 0.209995 5.98988 0.209995 2.85988 3.35C-0.280117 6.49 -0.280117 11.59 2.85988 14.72C4.37988 16.24 6.39988 17.08 8.54988 17.08C10.3699 17.08 12.0999 16.47 13.4999 15.37L16.3999 18.27C16.5999 18.47 16.8499 18.56 17.1099 18.56C17.3699 18.56 17.6199 18.46 17.8199 18.27C18.2099 17.88 18.2099 17.25 17.8199 16.86L17.8099 16.85ZM4.26988 13.31C1.90988 10.95 1.90988 7.11999 4.26988 4.76999C5.44988 3.58999 6.99988 2.99999 8.53988 2.99999C10.0799 2.99999 11.6299 3.58999 12.8099 4.76999C13.9899 5.94999 14.5799 7.42999 14.5799 9.03999C14.5799 10.65 13.9499 12.17 12.8099 13.31C11.6699 14.45 10.1499 15.08 8.53988 15.08C6.92988 15.08 5.40988 14.45 4.26988 13.31Z" fill="#858585"/>
</svg>
